<svg xmlns="http://www.w3.org/2000/svg" viewBox="0 0 100 100"><defs><linearGradient id="c" x2="1" y2="1"><stop stop-color="#ffca79"/><stop offset="1" stop-color="#ee874d"/></linearGradient></defs><path d="M39 35C54 21 76 36 72 51 66 72 29 95 22 89 17 85 22 51 39 35Z" fill="url(#c)" stroke="#cc743e" stroke-width="3"/><path d="M62 32c-8-8-3-22 1-22 7 0 10 11 9 18 5-13 20-18 22-11 3 7-10 18-24 20" fill="#83af70" stroke="#55884e" stroke-width="3"/><path d="m40 46 9 5m-17 8 8 5m-12 9 5 3" stroke="#d8884c" stroke-width="4" stroke-linecap="round"/><path d="M46 37c-10 5-18 21-20 31" fill="none" stroke="#ffe1a9" stroke-width="4" stroke-linecap="round"/></svg>
